<?xml version="1.0" encoding="UTF-8"?><svg id="a" xmlns="http://www.w3.org/2000/svg" width="112" height="50" viewBox="0 0 112 50"><path d="m76.135,32.97c-.504,0-.914.188-1.213.572-.29.418-.444.956-.444,1.665,0,1.537.564,2.306,1.648,2.306.504,0,.914-.222,1.213-.606.29-.384.444-.965.444-1.699,0-1.503-.564-2.238-1.648-2.238Z"/><path d="m92.566,30.502h-33.434c-.769,0-1.418.709-1.418,1.537v6.499c0,.837.649,1.503,1.418,1.503h33.434c.769,0,1.418-.675,1.418-1.503v-6.499c0-.828-.649-1.537-1.418-1.537Zm-31.018,7.49c-.974,0-1.768-.863-1.768-1.922s.794-1.956,1.768-1.956,1.742.863,1.742,1.956-.794,1.922-1.742,1.922Zm9.146.709c-.325.094-.769.128-1.238.128-1.059,0-1.913-.316-2.536-.931-.623-.641-.914-1.503-.914-2.596s.325-1.981.999-2.622c.675-.675,1.623-.991,2.776-.991.828,0,1.503.222,2.092.675l-.683,1.187c-.384-.384-.888-.547-1.537-.547s-1.093.196-1.443.606c-.35.418-.529.956-.529,1.699,0,1.443.675,2.178,2.067,2.178.623,0,1.153-.222,1.597-.606l.589,1.281c-.47.29-.888.487-1.238.547v-.009Zm7.848-.863c-.589.675-1.392.991-2.417.991s-1.887-.316-2.451-.991c-.589-.641-.888-1.537-.888-2.622s.299-1.887.914-2.528c.623-.675,1.418-.991,2.417-.991,1.059,0,1.862.316,2.451.965.589.581.888,1.469.888,2.562s-.299,1.981-.914,2.622v-.009Zm11.862.837h-1.623v-4.355c0-.897-.41-1.349-1.238-1.349-.239,0-.47.068-.709.222-.205.128-.35.29-.47.478v4.996h-1.588v-4.577c0-.35-.12-.641-.325-.837-.205-.188-.504-.29-.888-.29-.205,0-.444.068-.675.222-.239.162-.41.316-.529.478v4.996h-1.597v-6.952h1.033l.41.675c.444-.512,1.008-.734,1.742-.734.914,0,1.597.256,2.067.734.205-.222.47-.418.854-.547.35-.128.709-.188,1.093-.188.769,0,1.358.222,1.802.641.41.453.649,1.025.649,1.793v4.577l-.009.017Z"/><path d="m111.482,4.472c-.453-1.87-1.418-3.954-3.493-4.398-1.691-.359-3.126.649-4.133,1.913-1.153,1.46-1.922,3.228-2.545,4.97-.828,2.306-1.409,4.706-1.862,7.105-.461,2.468-.752,4.979-.837,7.49-.043,1.238-.043,2.485.034,3.723.034.615.094,1.221.179,1.836.043.29.094.581.145.871.026.145.06.29.094.427.034.034.171-.017.205-.017,1.076-.231,2.238-.282,3.331-.205,1.179.077,2.272.436,3.296,1.025.248.145.487.29.726.453.12.085.239.171.359.256.102.077.188.188.307.239.307-.487.589-.999.837-1.52.504-1.05.905-2.144,1.281-3.245.777-2.323,1.375-4.706,1.793-7.122.427-2.46.7-4.945.777-7.438.068-2.118,0-4.287-.504-6.354l.009-.009Zm-7.814,2.408c.555-.948,1.102-1.887,1.896-2.656.615-.598,1.563-1.221,2.383-.615.7.521,1.085,1.469,1.358,2.263.359,1.05.572,2.203.666,3.305-2.22-.529-4.458-1.016-6.687-1.529.128-.256.256-.512.384-.769Zm-3.083,9.898c.248-1.187.436-2.391.717-3.57.145-.589.316-1.179.512-1.751.043-.128.453-1.469.495-1.46.828.188,1.657.376,2.477.564,1.025.231,2.058.461,3.083.692l-7.387,6.243c.034-.239.06-.47.094-.709l.009-.009Zm7.806,6.704c-.179.555-.359,1.119-.572,1.665-.026.06-.248.649-.282.641-.017,0-.034,0-.051-.009-.282-.06-.572-.12-.863-.179-1.136-.239-2.28-.487-3.416-.726-1.008-.214-2.015-.427-3.023-.649-.026-.547-.026-1.102-.051-1.648-.026-.564.051-1.119.051-1.674,1.785.41,3.57.811,5.355,1.221,1.025.231,2.041.461,3.066.7-.068.222-.137.444-.205.666l-.009-.009Zm1.537-7.43c-.154,1.401-.41,2.801-.7,4.185-1.862-.41-3.732-.828-5.594-1.238-.393-.085-.777-.171-1.17-.256l7.652-6.892c.017,1.401-.026,2.81-.188,4.202h0Z"/><path d="m0,26.198c0,.581.239,1.085.675,1.537.47.444,1.033.675,1.682.675h15.082v-2.784H5.286L16.44,4.207c.325-.606.47-1.187.47-1.665C16.909.91,15.876.073,13.843.073H.325v6.499h1.802c.026-1.503.325-2.468.854-2.946.529-.478,1.537-.734,2.98-.734h5.662L.828,23.67C.265,24.729,0,25.557,0,26.198Z"/><path d="m31.667,15.984c0-2.622-.47-4.518-1.383-5.636-.948-1.093-2.536-1.665-4.782-1.665-2.007,0-3.595.444-4.808,1.375-1.179.897-1.802,2.118-1.862,3.621l2.391,2.468c1.503,0,2.331-.734,2.536-2.109.205-1.375.325-2.118.35-2.144.205-.7.675-1.025,1.358-1.025s1.179.384,1.443,1.153c.29.769.41,2.015.41,3.749v1.793c-6.2.316-9.326,2.468-9.326,6.405,0,1.341.504,2.502,1.503,3.459s2.246,1.443,3.715,1.443c.914,0,1.742-.222,2.451-.675.06-.034.623-.512,1.742-1.375.564-.478,1.298-.7,2.186-.7h2.067v-10.12l.009-.017Zm-4.338,7.652c-.683,1.477-1.623,2.238-2.895,2.238-1.179,0-1.768-.897-1.768-2.622,0-2.178,1.563-3.331,4.663-3.519v3.903Z"/><path d="m42.94,8.75c-1.093,0-2.067.316-2.921.991-.794.709-1.563,1.375-2.297,2.05-.444.325-1.238.478-2.451.478-.085,0-.265,0-.529-.034h-.564v22.478c0,.641.205,1.187.623,1.631.41.478.914.709,1.537.709s1.093-.222,1.503-.675c.384-.444.589-.991.589-1.665v-7.618c1.033,1.315,2.357,1.981,4.014,1.981,2.186,0,3.894-.897,5.107-2.656,1.213-1.793,1.828-4.321,1.828-7.592s-.589-5.636-1.742-7.43c-1.153-1.793-2.716-2.656-4.689-2.656l-.009.009Zm-1.358,17.353c-2.092,0-3.16-1.922-3.16-5.824v-4.646c.828-2.656,1.922-3.971,3.245-3.971,1.981,0,2.955,2.374,2.955,7.071s-1.008,7.362-3.04,7.362v.009Z"/><path d="m64.478,26.42c1.213-1.793,1.802-4.321,1.802-7.592s-.564-5.636-1.708-7.43c-1.153-1.793-2.716-2.656-4.663-2.656-1.093,0-2.067.316-2.955.991-.769.709-1.537,1.375-2.272,2.05-.444.325-1.238.478-2.451.478-.12,0-.299,0-.529-.034h-.564v22.478c0,.641.205,1.187.623,1.631.41.478.914.709,1.503.709.623,0,1.119-.222,1.503-.675.41-.444.623-.991.623-1.665v-7.618c1.033,1.315,2.357,1.981,4.014,1.981,2.186,0,3.835-.897,5.073-2.656v.009Zm-9.087-6.149v-4.646c.828-2.656,1.887-3.971,3.22-3.971,1.973,0,2.98,2.374,2.98,7.071s-.999,7.362-3.04,7.362-3.16-1.922-3.16-5.824v.009Z"/><path d="m74.922,28.853c4.842,0,7.285-3.331,7.285-9.924,0-3.203-.649-5.73-1.947-7.524-1.324-1.828-3.1-2.716-5.338-2.716-4.868,0-7.319,3.425-7.319,10.24s2.451,9.924,7.319,9.924Zm-2.357-16.004c.47-1.315,1.272-1.956,2.391-1.956,1.443,0,2.391,1.281,2.776,3.809.145.897.239,2.878.239,5.859,0,4.065-1.033,6.081-3.04,6.081-1.153,0-1.947-.641-2.417-1.922-.41-1.187-.649-3.109-.649-5.799s.239-4.8.709-6.081l-.009.009Z"/><path d="m89.919,15.984c-1.648-1.093-2.477-2.015-2.477-2.852,0-1.341.769-1.981,2.331-1.981,1.828,0,2.741.828,2.741,2.528h1.537v-4.227c-1.742-.512-3.1-.769-4.039-.769-2.092,0-3.689.512-4.808,1.503-1.153.999-1.708,2.374-1.708,4.159,0,1.247.359,2.34,1.059,3.262.589.803,1.623,1.699,3.066,2.69,1.443.991,2.306,1.606,2.571,1.887.649.606.974,1.247.974,1.99,0,1.341-.854,2.015-2.536,2.015-.999,0-2.092-.444-3.271-1.315-.145-.034-.35-.034-.564-.034-.769,0-1.153.256-1.153.803,0,.863.529,1.631,1.537,2.238.999.606,2.297.897,3.894.897,1.802,0,3.245-.512,4.364-1.571s1.682-2.468,1.682-4.159c0-1.956-.769-3.681-2.272-5.124-1.119-.769-2.092-1.443-2.921-1.956l-.009.017Z"/><path d="m106.375,35.967c.333-2.494-1.366-4.782-3.792-5.107-2.434-.325-4.671,1.426-5.004,3.928-.333,2.494,1.358,4.782,3.792,5.107,2.434.325,4.671-1.435,5.013-3.928h-.009Z"/></svg>